# xmcd CD database file
#
# Track frame offsets:
#	150
#	48479
#	84594
#	142418
#	210026
#
# Disc length: 3498 seconds
#
# Revision: 2
# Processed by: cddbd v1.5.2PL0 Copyright (c) Steve Scherf et al.
# Submitted via: CDex 1.70beta1
#
DISCID=410da805
DTITLE=SBB - Trio Live-Tournee 2001
DYEAR=2002
DGENRE=Progressive Rock
TTITLE0=Przebudzenie
TTITLE1=Hung Under
TTITLE2=Dragon's Eyes
TTITLE3=Odlot
TTITLE4=Trio
EXTD=YEAR: 2002
EXTT0=
EXTT1=
EXTT2=
EXTT3=
EXTT4=
PLAYORDER=
